<svg width="231" height="28" viewBox="0 0 231 28" fill="none" xmlns="http://www.w3.org/2000/svg">
<path d="M14 28C21.732 28 28 21.732 28 14C28 6.26801 21.732 0 14 0C6.26801 0 0 6.26801 0 14C0 21.732 6.26801 28 14 28Z" fill="#FE4901"/>
<path d="M15.4902 15.5076L12.9861 22.0416C12.8917 22.2908 12.6605 22.409 12.4325 22.3995C12.2241 22.3899 12.019 22.2717 11.9311 22.0448L6.55162 8.17481C6.50278 8.0502 6.55813 7.93837 6.64931 7.88086C6.74049 7.82335 6.86748 7.82015 6.96192 7.916L11.8106 12.7758C11.537 13.5554 11.8952 14.5075 12.9112 14.8206C13.1359 14.8909 13.3834 14.8941 13.6081 14.827C14.9106 14.4404 15.1646 12.9867 14.3668 12.1879C13.9304 11.7501 13.3052 11.6351 12.7614 11.8268L7.89973 6.95108C7.8053 6.85523 7.80856 6.73062 7.87043 6.64435C7.92904 6.55489 8.04627 6.50376 8.17001 6.55169L22.0452 11.9546C22.2829 12.0473 22.4001 12.2582 22.4001 12.469C22.4001 12.6799 22.2796 12.8908 22.0419 12.9835L15.4902 15.5076Z" fill="white"/>
<path d="M42.283 22C45.099 22 47.013 20.119 47.013 17.501C47.013 15.642 45.858 14.3 44.329 13.882C45.462 13.398 46.232 12.254 46.232 10.769C46.232 8.272 44.45 6.6 41.579 6.6H35.617V22H42.283ZM42.844 11.121C42.844 12.144 42.206 12.716 41.304 12.716H39.148V9.526H41.304C42.206 9.526 42.844 10.098 42.844 11.121ZM43.405 17.303C43.405 18.37 42.723 19.074 41.755 19.074H39.148V15.532H41.755C42.723 15.532 43.405 16.225 43.405 17.303ZM48.5069 16.302C48.5069 19.646 51.2459 22.264 54.8869 22.264C58.5279 22.264 61.2669 19.646 61.2669 16.302C61.2669 12.958 58.5279 10.34 54.8869 10.34C51.2459 10.34 48.5069 12.958 48.5069 16.302ZM52.0159 16.302C52.0159 14.685 53.2479 13.442 54.8869 13.442C56.5259 13.442 57.7579 14.685 57.7579 16.302C57.7579 17.93 56.5259 19.162 54.8869 19.162C53.2479 19.162 52.0159 17.93 52.0159 16.302ZM63.3267 22H66.8577V5.94H63.3267V22ZM68.9386 16.302C68.9386 19.646 71.1606 22.264 74.2956 22.264C75.7916 22.264 77.0236 21.692 77.9146 20.746V22H81.3906V5.94H77.9146V11.858C77.0236 10.912 75.7916 10.34 74.2956 10.34C71.1606 10.34 68.9386 12.958 68.9386 16.302ZM72.4476 16.302C72.4476 14.685 73.6356 13.442 75.1646 13.442C76.7046 13.442 77.9146 14.685 77.9146 16.302C77.9146 17.93 76.7046 19.162 75.1646 19.162C73.6356 19.162 72.4476 17.93 72.4476 16.302ZM83.9465 19.063C85.5525 21.263 87.5325 22.264 89.5565 22.264C93.0545 22.264 95.2435 20.207 95.2435 17.457C95.2435 15.004 93.6265 13.42 90.3375 12.661C88.3135 12.199 87.6975 11.517 87.6975 10.659C87.6975 9.889 88.4235 9.35 89.4575 9.35C90.5025 9.35 91.1845 9.988 91.3385 11.11H94.9025C94.6495 7.997 92.3175 6.336 89.2925 6.336C86.1685 6.336 84.0235 8.272 84.0235 10.945C84.0235 13.31 85.7725 14.938 88.6875 15.565C91.0085 16.06 91.5695 16.764 91.5695 17.633C91.5695 18.579 90.6785 19.206 89.3915 19.206C87.8625 19.206 86.6745 18.579 85.4535 17.402L83.9465 19.063ZM97.3579 22H100.889V10.604H97.3579V22ZM97.1049 7.623C97.1049 8.723 97.9849 9.548 99.1289 9.548C100.273 9.548 101.153 8.723 101.153 7.623C101.153 6.534 100.273 5.698 99.1289 5.698C97.9849 5.698 97.1049 6.534 97.1049 7.623ZM102.97 16.302C102.97 19.536 105.192 22.154 108.327 22.154C109.823 22.154 111.055 21.582 111.946 20.647V21.494C111.946 23.21 110.725 24.2 108.91 24.2C107.502 24.2 106.38 23.727 105.313 22.814L103.872 24.651C105.412 26.301 107.205 27.104 109.306 27.104C113.112 27.104 115.422 24.871 115.422 21.274V10.604H111.946V11.858C111.055 10.912 109.823 10.34 108.327 10.34C105.192 10.34 102.97 12.958 102.97 16.302ZM106.479 16.302C106.479 14.685 107.667 13.442 109.196 13.442C110.736 13.442 111.946 14.685 111.946 16.302C111.946 17.93 110.736 19.162 109.196 19.162C107.667 19.162 106.479 17.93 106.479 16.302ZM124.875 10.34C123.577 10.34 122.488 10.868 121.718 11.803V10.604H118.187V22H121.718V15.84C121.718 14.278 122.675 13.442 123.819 13.442C124.842 13.442 125.656 14.388 125.656 15.411V22H129.187V14.85C129.187 12.155 127.372 10.34 124.875 10.34Z" fill="#283A5E"/>
<path d="M139.5 3V25" stroke="#68758E"/>
<path d="M157.512 20.2L153.288 9H151.608L147.384 20.2H149.024L150.064 17.312H154.832L155.872 20.2H157.512ZM150.512 16.008L152.448 10.664L154.384 16.008H150.512Z" fill="#283A5E"/>
<path d="M162.811 15.976C165.187 15.976 166.659 14.6 166.659 12.488C166.659 10.376 165.187 9 162.811 9H159.235V20.2H160.739V15.976H162.811ZM165.131 12.488C165.131 13.816 164.259 14.672 162.755 14.672H160.739V10.304H162.755C164.259 10.304 165.131 11.16 165.131 12.488Z" fill="#283A5E"/>
<path d="M168.778 9V20.2H170.282V9H168.778Z" fill="#283A5E"/>
<path d="M178.344 9V19.1818H182.144C185.52 19.1818 187.656 17.2036 187.656 14.0909C187.656 10.9855 185.52 9 182.144 9H178.344ZM182.144 10.2073C184.504 10.2073 186.128 11.5382 186.128 14.0909C186.128 16.6436 184.504 17.9745 182.144 17.9745H179.848V10.2073H182.144ZM190.377 15.8291H197.425C197.465 15.6691 197.497 15.4364 197.497 15.2473C197.497 13.1745 195.745 11.4727 193.273 11.4727C190.753 11.4727 188.889 13.2327 188.889 15.4145C188.889 17.5964 190.697 19.3564 193.393 19.3564C195.073 19.3564 196.153 18.7018 197.049 17.7345L196.209 17.0145C195.369 17.8 194.529 18.2145 193.353 18.2145C191.753 18.2145 190.537 17.1745 190.377 15.8291ZM193.273 12.6145C194.673 12.6145 195.745 13.5164 195.969 14.7309H190.433C190.721 13.5309 191.889 12.6145 193.273 12.6145ZM200.718 14.9855C200.718 13.6691 201.91 12.6582 202.942 12.6582C204.142 12.6582 204.934 13.4218 204.934 14.6218V19.1818H206.39V14.9855C206.39 13.6691 207.582 12.6582 208.614 12.6582C209.814 12.6582 210.606 13.4218 210.606 14.6218V19.1818H212.062V14.5491C212.062 12.6582 210.702 11.4727 208.886 11.4727C207.638 11.4727 206.598 12.12 206.054 13.08C205.55 12.0691 204.494 11.4727 203.214 11.4727C202.182 11.4727 201.294 12.0036 200.718 12.7745V11.6473H199.262V19.1818H200.718V14.9855ZM218.135 18.1709C216.439 18.1709 215.135 16.9345 215.135 15.4145C215.135 13.8945 216.439 12.6582 218.135 12.6582C219.831 12.6582 221.135 13.8945 221.135 15.4145C221.135 16.9345 219.831 18.1709 218.135 18.1709ZM218.135 11.4727C215.551 11.4727 213.655 13.24 213.655 15.4145C213.655 17.5891 215.551 19.3564 218.135 19.3564C220.719 19.3564 222.615 17.5891 222.615 15.4145C222.615 13.24 220.719 11.4727 218.135 11.4727ZM223.923 17.96C224.659 18.8182 225.651 19.3564 227.011 19.3564C228.939 19.3564 230.067 18.3964 230.067 17.1236C230.067 15.8727 229.147 15.1164 227.243 14.7745C226.091 14.5636 225.531 14.12 225.531 13.5818C225.531 13.0145 226.099 12.6145 226.955 12.6145C227.787 12.6145 228.283 13.0582 228.315 13.6618H229.779C229.579 12.2145 228.451 11.4727 226.851 11.4727C225.115 11.4727 224.075 12.3745 224.075 13.56C224.075 14.7309 224.947 15.5091 226.771 15.8291C228.067 16.0545 228.611 16.4691 228.611 17.1018C228.611 17.7709 227.963 18.2145 226.915 18.2145C225.971 18.2145 225.147 17.8 224.611 17.2109L223.923 17.96Z" fill="#283A5E"/>
</svg>
