<svg width="201" height="28" viewBox="0 0 201 28" fill="none" xmlns="http://www.w3.org/2000/svg">
<path d="M148.344 9.8V21H152.144C155.52 21 157.656 18.824 157.656 15.4C157.656 11.984 155.52 9.8 152.144 9.8H148.344ZM152.144 11.128C154.504 11.128 156.128 12.592 156.128 15.4C156.128 18.208 154.504 19.672 152.144 19.672H149.848V11.128H152.144ZM160.377 17.312H167.425C167.465 17.136 167.497 16.88 167.497 16.672C167.497 14.392 165.745 12.52 163.273 12.52C160.753 12.52 158.889 14.456 158.889 16.856C158.889 19.256 160.697 21.192 163.393 21.192C165.073 21.192 166.153 20.472 167.049 19.408L166.209 18.616C165.369 19.48 164.529 19.936 163.353 19.936C161.753 19.936 160.537 18.792 160.377 17.312ZM163.273 13.776C164.673 13.776 165.745 14.768 165.969 16.104H160.433C160.721 14.784 161.889 13.776 163.273 13.776ZM170.718 16.384C170.718 14.936 171.91 13.824 172.942 13.824C174.142 13.824 174.934 14.664 174.934 15.984V21H176.39V16.384C176.39 14.936 177.582 13.824 178.614 13.824C179.814 13.824 180.606 14.664 180.606 15.984V21H182.062V15.904C182.062 13.824 180.702 12.52 178.886 12.52C177.638 12.52 176.598 13.232 176.054 14.288C175.55 13.176 174.494 12.52 173.214 12.52C172.182 12.52 171.294 13.104 170.718 13.952V12.712H169.262V21H170.718V16.384ZM188.135 19.888C186.439 19.888 185.135 18.528 185.135 16.856C185.135 15.184 186.439 13.824 188.135 13.824C189.831 13.824 191.135 15.184 191.135 16.856C191.135 18.528 189.831 19.888 188.135 19.888ZM188.135 12.52C185.551 12.52 183.655 14.464 183.655 16.856C183.655 19.248 185.551 21.192 188.135 21.192C190.719 21.192 192.615 19.248 192.615 16.856C192.615 14.464 190.719 12.52 188.135 12.52ZM193.923 19.656C194.659 20.6 195.651 21.192 197.011 21.192C198.939 21.192 200.067 20.136 200.067 18.736C200.067 17.36 199.147 16.528 197.243 16.152C196.091 15.92 195.531 15.432 195.531 14.84C195.531 14.216 196.099 13.776 196.955 13.776C197.787 13.776 198.283 14.264 198.315 14.928H199.779C199.579 13.336 198.451 12.52 196.851 12.52C195.115 12.52 194.075 13.512 194.075 14.816C194.075 16.104 194.947 16.96 196.771 17.312C198.067 17.56 198.611 18.016 198.611 18.712C198.611 19.448 197.963 19.936 196.915 19.936C195.971 19.936 195.147 19.48 194.611 18.832L193.923 19.656Z" fill="#283A5E"/>
<path d="M14 28C21.732 28 28 21.732 28 14C28 6.26801 21.732 0 14 0C6.26801 0 0 6.26801 0 14C0 21.732 6.26801 28 14 28Z" fill="#FE4901"/>
<path d="M15.4902 15.5076L12.9861 22.0416C12.8917 22.2908 12.6605 22.409 12.4325 22.3995C12.2241 22.3899 12.019 22.2717 11.9311 22.0448L6.55162 8.17481C6.50278 8.0502 6.55813 7.93837 6.64931 7.88086C6.74049 7.82335 6.86748 7.82015 6.96192 7.916L11.8106 12.7758C11.537 13.5554 11.8952 14.5075 12.9112 14.8206C13.1359 14.8909 13.3834 14.8941 13.6081 14.827C14.9106 14.4404 15.1646 12.9867 14.3668 12.1879C13.9304 11.7501 13.3052 11.6351 12.7614 11.8268L7.89973 6.95108C7.8053 6.85523 7.80856 6.73062 7.87043 6.64435C7.92904 6.55489 8.04627 6.50376 8.17001 6.55169L22.0452 11.9546C22.2829 12.0473 22.4001 12.2582 22.4001 12.469C22.4001 12.6799 22.2796 12.8908 22.0419 12.9835L15.4902 15.5076Z" fill="white"/>
<path d="M42.283 22C45.099 22 47.013 20.119 47.013 17.501C47.013 15.642 45.858 14.3 44.329 13.882C45.462 13.398 46.232 12.254 46.232 10.769C46.232 8.272 44.45 6.6 41.579 6.6H35.617V22H42.283ZM42.844 11.121C42.844 12.144 42.206 12.716 41.304 12.716H39.148V9.526H41.304C42.206 9.526 42.844 10.098 42.844 11.121ZM43.405 17.303C43.405 18.37 42.723 19.074 41.755 19.074H39.148V15.532H41.755C42.723 15.532 43.405 16.225 43.405 17.303ZM48.5069 16.302C48.5069 19.646 51.2459 22.264 54.8869 22.264C58.5279 22.264 61.2669 19.646 61.2669 16.302C61.2669 12.958 58.5279 10.34 54.8869 10.34C51.2459 10.34 48.5069 12.958 48.5069 16.302ZM52.0159 16.302C52.0159 14.685 53.2479 13.442 54.8869 13.442C56.5259 13.442 57.7579 14.685 57.7579 16.302C57.7579 17.93 56.5259 19.162 54.8869 19.162C53.2479 19.162 52.0159 17.93 52.0159 16.302ZM63.3267 22H66.8577V5.94H63.3267V22ZM68.9386 16.302C68.9386 19.646 71.1606 22.264 74.2956 22.264C75.7916 22.264 77.0236 21.692 77.9146 20.746V22H81.3906V5.94H77.9146V11.858C77.0236 10.912 75.7916 10.34 74.2956 10.34C71.1606 10.34 68.9386 12.958 68.9386 16.302ZM72.4476 16.302C72.4476 14.685 73.6356 13.442 75.1646 13.442C76.7046 13.442 77.9146 14.685 77.9146 16.302C77.9146 17.93 76.7046 19.162 75.1646 19.162C73.6356 19.162 72.4476 17.93 72.4476 16.302ZM83.9465 19.063C85.5525 21.263 87.5325 22.264 89.5565 22.264C93.0545 22.264 95.2435 20.207 95.2435 17.457C95.2435 15.004 93.6265 13.42 90.3375 12.661C88.3135 12.199 87.6975 11.517 87.6975 10.659C87.6975 9.889 88.4235 9.35 89.4575 9.35C90.5025 9.35 91.1845 9.988 91.3385 11.11H94.9025C94.6495 7.997 92.3175 6.336 89.2925 6.336C86.1685 6.336 84.0235 8.272 84.0235 10.945C84.0235 13.31 85.7725 14.938 88.6875 15.565C91.0085 16.06 91.5695 16.764 91.5695 17.633C91.5695 18.579 90.6785 19.206 89.3915 19.206C87.8625 19.206 86.6745 18.579 85.4535 17.402L83.9465 19.063ZM97.3579 22H100.889V10.604H97.3579V22ZM97.1049 7.623C97.1049 8.723 97.9849 9.548 99.1289 9.548C100.273 9.548 101.153 8.723 101.153 7.623C101.153 6.534 100.273 5.698 99.1289 5.698C97.9849 5.698 97.1049 6.534 97.1049 7.623ZM102.97 16.302C102.97 19.536 105.192 22.154 108.327 22.154C109.823 22.154 111.055 21.582 111.946 20.647V21.494C111.946 23.21 110.725 24.2 108.91 24.2C107.502 24.2 106.38 23.727 105.313 22.814L103.872 24.651C105.412 26.301 107.205 27.104 109.306 27.104C113.112 27.104 115.422 24.871 115.422 21.274V10.604H111.946V11.858C111.055 10.912 109.823 10.34 108.327 10.34C105.192 10.34 102.97 12.958 102.97 16.302ZM106.479 16.302C106.479 14.685 107.667 13.442 109.196 13.442C110.736 13.442 111.946 14.685 111.946 16.302C111.946 17.93 110.736 19.162 109.196 19.162C107.667 19.162 106.479 17.93 106.479 16.302ZM124.875 10.34C123.577 10.34 122.488 10.868 121.718 11.803V10.604H118.187V22H121.718V15.84C121.718 14.278 122.675 13.442 123.819 13.442C124.842 13.442 125.656 14.388 125.656 15.411V22H129.187V14.85C129.187 12.155 127.372 10.34 124.875 10.34Z" fill="#283A5E"/>
<line x1="139.5" y1="3" x2="139.5" y2="25" stroke="#68758E"/>
</svg>
