<svg width="21" height="20" viewBox="0 0 21 20" fill="none" xmlns="http://www.w3.org/2000/svg">
<path d="M6.76034 16.104C6.76034 16.1867 6.66661 16.2529 6.54844 16.2529C6.41397 16.2653 6.32024 16.1991 6.32024 16.104C6.32024 16.0213 6.41397 15.9551 6.53214 15.9551C6.65439 15.9427 6.76034 16.0089 6.76034 16.104ZM5.49303 15.9179C5.4645 16.0006 5.546 16.0957 5.66825 16.1205C5.7742 16.1619 5.89645 16.1205 5.9209 16.0378C5.94535 15.9551 5.86792 15.86 5.74567 15.8228C5.63973 15.7938 5.52155 15.8352 5.49303 15.9179ZM7.29415 15.8476C7.17598 15.8765 7.09448 15.9551 7.10671 16.0502C7.11893 16.1329 7.22488 16.1867 7.34713 16.1577C7.4653 16.1288 7.5468 16.0502 7.53458 15.9675C7.52235 15.8889 7.41233 15.8352 7.29415 15.8476ZM9.97547 0C4.32352 0 0 4.35477 0 10.0908C0 14.6772 2.84431 18.6019 6.90703 19.9832C7.42863 20.0783 7.612 19.7516 7.612 19.4827C7.612 19.2263 7.59978 17.812 7.59978 16.9435C7.59978 16.9435 4.74731 17.5638 4.1483 15.7111C4.1483 15.7111 3.68375 14.5076 3.01546 14.1975C3.01546 14.1975 2.0823 13.5482 3.08066 13.5606C3.08066 13.5606 4.09532 13.6433 4.65359 14.6276C5.546 16.2239 7.04151 15.7649 7.62422 15.4919C7.71795 14.8302 7.98282 14.3712 8.27622 14.0982C5.99832 13.8418 3.70005 13.5068 3.70005 9.52839C3.70005 8.3911 4.00975 7.82039 4.66174 7.09253C4.55579 6.82372 4.20942 5.71538 4.76769 4.28447C5.61935 4.01565 7.5794 5.40108 7.5794 5.40108C8.39439 5.16948 9.2705 5.04955 10.1385 5.04955C11.0064 5.04955 11.8825 5.16948 12.6975 5.40108C12.6975 5.40108 14.6576 4.01152 15.5092 4.28447C16.0675 5.71951 15.7211 6.82372 15.6152 7.09253C16.2672 7.82453 16.6665 8.39524 16.6665 9.52839C16.6665 13.5192 14.2664 13.8377 11.9885 14.0982C12.3634 14.4249 12.6812 15.0453 12.6812 16.0171C12.6812 17.4108 12.669 19.1354 12.669 19.4745C12.669 19.7433 12.8565 20.07 13.374 19.9749C17.4489 18.6019 20.2117 14.6772 20.2117 10.0908C20.2117 4.35477 15.6274 0 9.97547 0ZM3.96085 14.2636C3.90787 14.305 3.9201 14.4001 3.98937 14.4787C4.05457 14.5449 4.1483 14.5738 4.20127 14.52C4.25424 14.4787 4.24202 14.3836 4.17275 14.305C4.10755 14.2388 4.01382 14.2099 3.96085 14.2636ZM3.52075 13.9287C3.49223 13.9824 3.53298 14.0486 3.61448 14.0899C3.67968 14.1313 3.76118 14.1189 3.7897 14.061C3.81822 14.0072 3.77748 13.9411 3.69598 13.8997C3.61448 13.8749 3.54928 13.8873 3.52075 13.9287ZM4.84104 15.4009C4.77584 15.4547 4.80029 15.5788 4.89401 15.6573C4.98773 15.7524 5.10591 15.7649 5.15888 15.6987C5.21186 15.6449 5.18741 15.5209 5.10591 15.4423C5.01626 15.3472 4.89401 15.3348 4.84104 15.4009ZM4.37649 14.793C4.31129 14.8343 4.31129 14.9419 4.37649 15.037C4.44169 15.1321 4.55172 15.1735 4.60469 15.1321C4.66989 15.0783 4.66989 14.9708 4.60469 14.8757C4.54764 14.7806 4.44169 14.7392 4.37649 14.793Z" fill="black"/>
</svg>
