<?xml version="1.0" encoding="UTF-8"?>
<svg width="195px" height="53px" viewBox="0 0 195 53" version="1.1" xmlns="http://www.w3.org/2000/svg" xmlns:xlink="http://www.w3.org/1999/xlink">
    <!-- Generator: Sketch 63.1 (92452) - https://sketch.com -->
    <title>Artboard</title>
    <desc>Created with Sketch.</desc>
    <defs>
        <path d="M58.3685008,49 C60.0260011,49 61.0985012,47.9079998 61.0985012,46.3479996 C61.0985012,45.2104994 60.3965011,44.4109992 59.512501,44.1704992 C60.1625011,43.8844992 60.6110012,43.2604991 60.6110012,42.3634989 C60.6110012,40.8619987 59.610001,39.8999985 57.9200007,39.8999985 L54.4945002,39.8999985 L54.4945002,49 L58.3685008,49 Z M57.7770007,43.5789991 L56.3080005,43.5789991 L56.3080005,41.4274988 L57.7770007,41.4274988 C58.3880008,41.4274988 58.8170009,41.7979988 58.8170009,42.5064989 C58.8170009,43.2084991 58.3880008,43.5789991 57.7770007,43.5789991 Z M58.1475008,47.4724997 L56.3080005,47.4724997 L56.3080005,45.0479994 L58.1475008,45.0479994 C58.7975009,45.0479994 59.2525009,45.5159994 59.2525009,46.2634996 C59.2525009,46.9979997 58.7975009,47.4724997 58.1475008,47.4724997 Z M65.1741575,52.0160005 L68.7556581,42.2659989 L66.8966578,42.2659989 L65.3756576,46.7379996 L63.8806573,42.2659989 L62.021657,42.2659989 L64.4916574,49 L63.3086572,52.0160005 L65.1741575,52.0160005 Z M77.5244716,49.156 C79.597972,49.156 80.8654722,48.0054998 80.8654722,46.4129996 C80.8654722,44.9829993 80.0009721,44.0339992 77.9664717,43.5659991 C76.6859715,43.2734991 76.2309714,42.850999 76.2309714,42.2334989 C76.2309714,41.6809988 76.7639715,41.3104987 77.4724716,41.3104987 C78.1809718,41.3104987 78.6684718,41.7264988 78.8049719,42.4999989 L80.6639722,42.4999989 C80.4364721,40.6344986 79.1169719,39.7439985 77.3944716,39.7439985 C75.6199713,39.7439985 74.3654711,40.8294987 74.3654711,42.3699989 C74.3654711,43.7284991 75.3339713,44.6709993 77.1539716,45.0544994 C78.6164718,45.3664994 78.9999719,45.8604995 78.9999719,46.4649996 C78.9999719,47.1409997 78.3629718,47.5764998 77.4854716,47.5764998 C76.5299715,47.5764998 75.8279714,47.1604997 75.1389713,46.4454996 L74.3394711,47.2904997 C75.2494713,48.5709999 76.4064715,49.156 77.5244716,49.156 Z M84.8761285,52.0160005 L88.4576291,42.2659989 L86.5986288,42.2659989 L85.0776286,46.7379996 L83.5826283,42.2659989 L81.723628,42.2659989 L84.1936284,49 L83.0106282,52.0160005 L84.8761285,52.0160005 Z M91.6232854,49 L91.6232854,45.3339994 C91.6232854,44.3199992 92.3252855,43.6894991 93.1507857,43.6894991 C93.8397858,43.6894991 94.4247859,44.2744992 94.4247859,45.0219993 L94.4247859,49 L96.2122862,49 L96.2122862,44.8334993 C96.2122862,43.201999 95.120286,42.1099989 93.5407857,42.1099989 C92.7672856,42.1099989 92.0977855,42.4479989 91.6232854,43.019999 L91.6232854,42.2659989 L89.8357851,42.2659989 L89.8357851,49 L91.6232854,49 Z M101.425443,49.156 C102.725443,49.156 103.739443,48.5254999 104.415443,47.2774997 L103.466443,46.5429996 C102.978943,47.1799997 102.302943,47.5764998 101.490443,47.5764998 C100.326942,47.5764998 99.5469424,46.7314996 99.5469424,45.6329994 C99.5469424,44.5409993 100.326942,43.6894991 101.295443,43.6894991 C101.971443,43.6894991 102.439443,44.0144992 102.653943,44.5279993 L104.597443,44.5279993 C104.194443,43.045999 103.017943,42.1099989 101.295443,42.1099989 C99.2869423,42.1099989 97.7529421,43.6634991 97.7529421,45.6329994 C97.7529421,47.6024998 99.2869423,49.156 101.425443,49.156 Z M108.4196,49 L108.4196,43.8194992 L110.0511,43.8194992 L110.0511,42.2659989 L108.4196,42.2659989 L108.4196,41.9019988 C108.4196,41.2714987 108.7056,40.9659987 109.4466,40.9659987 C109.6351,40.9659987 109.8756,40.9789987 110.0511,40.9984987 L110.0511,39.5749985 C109.8431,39.5424984 109.5506,39.5099984 109.2776,39.5099984 C107.522599,39.5099984 106.632099,40.2899986 106.632099,41.8824988 L106.632099,42.2659989 L105.494599,42.2659989 L105.494599,43.8194992 L106.632099,43.8194992 L106.632099,49 L108.4196,49 Z M114.120257,49.156 C114.887257,49.156 115.563257,48.818 116.037757,48.2524999 L116.037757,49 L117.825257,49 L117.825257,42.2659989 L116.037757,42.2659989 L116.037757,45.8539995 C116.037757,46.9134997 115.355257,47.5764998 114.510257,47.5764998 C113.821257,47.5764998 113.236256,46.9914997 113.236256,46.2439995 L113.236256,42.2659989 L111.448756,42.2659989 L111.448756,46.4324996 C111.448756,48.0639998 112.540756,49.156 114.120257,49.156 Z M122.160914,49.156 C123.831414,49.156 124.825914,48.2654999 124.825914,47.0759997 C124.825914,45.9384995 124.110914,45.2234994 122.550914,44.9049993 C121.796913,44.7489993 121.478413,44.4564993 121.478413,44.0989992 C121.478413,43.7544991 121.829413,43.5399991 122.251914,43.5399991 C122.719914,43.5399991 123.012414,43.7999991 123.103414,44.2354992 L124.786914,44.2354992 C124.572414,42.948499 123.681914,42.1099989 122.160914,42.1099989 C120.698413,42.1099989 119.729913,42.941999 119.729913,44.0729992 C119.729913,45.1909994 120.457913,45.9319995 121.920413,46.2309995 C122.791414,46.4064996 123.077414,46.6534996 123.077414,47.0564997 C123.077414,47.4659997 122.706914,47.7259998 122.089413,47.7259998 C121.426413,47.7259998 120.906413,47.4399997 120.379913,46.9264997 L119.645413,47.7519998 C120.334413,48.6684999 121.153413,49.156 122.160914,49.156 Z M127.41957,41.5054988 C128.01757,41.5054988 128.47907,41.0569987 128.47907,40.4719986 C128.47907,39.8869985 128.01757,39.4384984 127.41957,39.4384984 C126.82157,39.4384984 126.36007,39.8869985 126.36007,40.4719986 C126.36007,41.0569987 126.82157,41.5054988 127.41957,41.5054988 Z M128.31007,49 L128.31007,42.2659989 L126.52257,42.2659989 L126.52257,49 L128.31007,49 Z M133.763728,49.156 C135.908728,49.156 137.501228,47.6024998 137.501228,45.6329994 C137.501228,43.6634991 135.908728,42.1099989 133.763728,42.1099989 C131.625227,42.1099989 130.026227,43.6634991 130.026227,45.6329994 C130.026227,47.6024998 131.625227,49.156 133.763728,49.156 Z M133.763728,47.5764998 C132.665228,47.5764998 131.820227,46.7314996 131.820227,45.6329994 C131.820227,44.5409993 132.665228,43.6894991 133.763728,43.6894991 C134.868728,43.6894991 135.713728,44.5409993 135.713728,45.6329994 C135.713728,46.7314996 134.868728,47.5764998 133.763728,47.5764998 Z M140.965884,49 L140.965884,45.3339994 C140.965884,44.3199992 141.667885,43.6894991 142.493385,43.6894991 C143.182385,43.6894991 143.767385,44.2744992 143.767385,45.0219993 L143.767385,49 L145.554885,49 L145.554885,44.8334993 C145.554885,43.201999 144.462885,42.1099989 142.883385,42.1099989 C142.109885,42.1099989 141.440385,42.4479989 140.965884,43.019999 L140.965884,42.2659989 L139.178384,42.2659989 L139.178384,49 L140.965884,49 Z" id="path-1"></path>
    </defs>
    <g id="Artboard" stroke="none" stroke-width="1" fill="none" fill-rule="evenodd">
        <g id="Group-18">
            <g id="Group-17">
                <circle id="Oval" fill="#FE4901" cx="20.8240797" cy="20.8240797" r="20.8240797"></circle>
                <path d="M23.0404994,23.0665377 L19.3158039,32.7854434 C19.1753408,33.1561401 18.8314482,33.3319834 18.4923992,33.3177258 C18.1824116,33.3034682 17.8772675,33.1276249 17.7464914,32.7901959 L9.74493511,12.1595017 C9.67228176,11.9741534 9.75462223,11.8078152 9.89024183,11.7222698 C10.0258614,11.6367244 10.2147602,11.6319719 10.3552233,11.7745475 L17.5672798,19.0031321 C17.160421,20.1627473 17.6932123,21.5789986 19.2044021,22.0447457 C19.5386076,22.1493011 19.9067179,22.1540537 20.2409234,22.0542507 C22.1783462,21.4791957 22.5561436,19.3167985 21.3694722,18.1286683 C20.7204355,17.4775729 19.7904725,17.3064821 18.9815985,17.5916334 L11.7501678,10.3392861 C11.6097046,10.1967105 11.6145482,10.0113622 11.7065757,9.8830441 C11.7937598,9.74997351 11.9681278,9.67393317 12.152183,9.74522099 L32.7905798,17.7817342 C33.1441595,17.9195573 33.3185275,18.2332237 33.3185275,18.5468901 C33.3185275,18.8605565 33.1393159,19.1742229 32.7857362,19.312046 L23.0404994,23.0665377 Z" id="Path" fill="#FFFFFF" fill-rule="nonzero"></path>
            </g>
            <path d="M64.424502,32 C68.6485027,32 71.5195032,29.1784995 71.5195032,25.2514989 C71.5195032,22.4629984 69.7870029,20.4499981 67.4935025,19.822998 C69.1930028,19.0969979 70.348003,17.3809976 70.348003,15.1534972 C70.348003,11.4079966 67.6750026,8.89999621 63.3685019,8.89999621 L54.4255004,8.89999621 L54.4255004,32 L64.424502,32 Z M62.9560018,18.0739977 L59.7220013,18.0739977 L59.7220013,13.2889969 L62.9560018,13.2889969 C64.309002,13.2889969 65.2660022,14.1469971 65.2660022,15.6814973 C65.2660022,17.2159976 64.309002,18.0739977 62.9560018,18.0739977 Z M63.6325019,27.6109993 L59.7220013,27.6109993 L59.7220013,22.2979984 L63.6325019,22.2979984 C65.0845021,22.2979984 66.1075023,23.3374986 66.1075023,24.9544988 C66.1075023,26.5549991 65.0845021,27.6109993 63.6325019,27.6109993 Z M83.3335017,32.3960001 C88.7950026,32.3960001 92.9035033,28.4689994 92.9035033,23.4529986 C92.9035033,18.4369978 88.7950026,14.5099971 83.3335017,14.5099971 C77.8720008,14.5099971 73.7635002,18.4369978 73.7635002,23.4529986 C73.7635002,28.4689994 77.8720008,32.3960001 83.3335017,32.3960001 Z M83.3335017,27.7429993 C80.8750013,27.7429993 79.027001,25.894999 79.027001,23.4529986 C79.027001,21.0274982 80.8750013,19.1629979 83.3335017,19.1629979 C85.7920021,19.1629979 87.6400024,21.0274982 87.6400024,23.4529986 C87.6400024,25.894999 85.7920021,27.7429993 83.3335017,27.7429993 Z M101.285501,32 L101.285501,7.90999605 L95.9890003,7.90999605 L95.9890003,32 L101.285501,32 Z M112.439501,32.3960001 C114.683502,32.3960001 116.531502,31.5379999 117.868002,30.1189997 L117.868002,32 L123.082003,32 L123.082003,7.90999605 L117.868002,7.90999605 L117.868002,16.7869975 C116.531502,15.3679973 114.683502,14.5099971 112.439501,14.5099971 C107.737001,14.5099971 104.404,18.4369978 104.404,23.4529986 C104.404,28.4689994 107.737001,32.3960001 112.439501,32.3960001 Z M113.743002,27.7429993 C111.449501,27.7429993 109.667501,25.894999 109.667501,23.4529986 C109.667501,21.0274982 111.449501,19.1629979 113.743002,19.1629979 C116.053002,19.1629979 117.868002,21.0274982 117.868002,23.4529986 C117.868002,25.894999 116.053002,27.7429993 113.743002,27.7429993 Z M135.341502,32.3960001 C140.588503,32.3960001 143.872003,29.3104996 143.872003,25.1854989 C143.872003,21.5059983 141.446503,19.1299979 136.513002,17.9914977 C133.477001,17.2984976 132.553001,16.2754974 132.553001,14.9884972 C132.553001,13.833497 133.642001,13.0249969 135.193002,13.0249969 C136.760502,13.0249969 137.783502,13.981997 138.014502,15.6649973 L143.360503,15.6649973 C142.981003,10.9954966 139.483002,8.50399615 134.945502,8.50399615 C130.259501,8.50399615 127.042,11.4079966 127.042,15.4174973 C127.042,18.9649979 129.665501,21.4069983 134.038001,22.3474984 C137.519502,23.0899985 138.361002,24.1459987 138.361002,25.4494989 C138.361002,26.8684992 137.024502,27.8089993 135.094002,27.8089993 C132.800501,27.8089993 131.018501,26.8684992 129.187001,25.1029989 L126.9265,27.5944993 C129.335501,30.8944998 132.305501,32.3960001 135.341502,32.3960001 Z M149.713001,13.3219969 C151.429001,13.3219969 152.749001,12.0844967 152.749001,10.4344965 C152.749001,8.8009962 151.429001,7.54699599 149.713001,7.54699599 C147.997,7.54699599 146.677,8.8009962 146.677,10.4344965 C146.677,12.0844967 147.997,13.3219969 149.713001,13.3219969 Z M152.353001,32 L152.353001,14.9059972 L147.0565,14.9059972 L147.0565,32 L152.353001,32 Z M164.975502,39.6560013 C170.684503,39.6560013 174.149503,36.3065007 174.149503,30.9109998 L174.149503,14.9059972 L168.935502,14.9059972 L168.935502,16.7869975 C167.599002,15.3679973 165.751002,14.5099971 163.507001,14.5099971 C158.804501,14.5099971 155.4715,18.4369978 155.4715,23.4529986 C155.4715,28.3039994 158.804501,32.231 163.507001,32.231 C165.751002,32.231 167.599002,31.3729999 168.935502,29.9704997 L168.935502,31.2409999 C168.935502,33.8150003 167.104002,35.3000005 164.381502,35.3000005 C162.269501,35.3000005 160.586501,34.5905004 158.986001,33.2210002 L156.8245,35.9765007 C159.134501,38.4515011 161.824001,39.6560013 164.975502,39.6560013 Z M164.810502,27.7429993 C162.517001,27.7429993 160.735001,25.894999 160.735001,23.4529986 C160.735001,21.0274982 162.517001,19.1629979 164.810502,19.1629979 C167.120502,19.1629979 168.935502,21.0274982 168.935502,23.4529986 C168.935502,25.894999 167.120502,27.7429993 164.810502,27.7429993 Z M183.604001,32 L183.604001,22.7599985 C183.604001,20.4169981 185.039501,19.1629979 186.755502,19.1629979 C188.290002,19.1629979 189.511002,20.5819981 189.511002,22.1164984 L189.511002,32 L194.8075,32 L194.8075,21.2749982 C194.8075,17.2324976 192.085003,14.5099971 188.339502,14.5099971 C186.392502,14.5099971 184.759001,15.3019973 183.604001,16.7044975 L183.604001,14.9059972 L178.3075,14.9059972 L178.3075,32 L183.604001,32 Z" id="BoldSign" fill="#283A5E" fill-rule="nonzero"></path>
            <g id="BySyncfusion" fill-rule="nonzero" fill="#283A5E">
                <use xlink:href="#path-1"></use>
                <use xlink:href="#path-1"></use>
            </g>
        </g>
    </g>
</svg>